P1
# This is an example bitmap of the letter "J"
8 9
0 0 0 0 1 0 0 0
0 0 0 0 1 0 0 0
0 0 0 0 1 0 0 0
0 0 0 0 1 0 0 0
0 0 0 0 1 0 0 0
0 0 0 0 1 0 0 0
1 0 0 0 1 0 0 0
0 1 1 1 0 0 0 0
0 0 0 0 0 0 0 0
